<svg xmlns="http://www.w3.org/2000/svg" viewBox="0 0 512 512">
  <defs>
    <filter id="blur24" x="-20%" y="-20%" width="140%" height="140%">
      <feGaussianBlur stdDeviation="24" />
    </filter>
    <filter id="blur14" x="-20%" y="-20%" width="140%" height="140%">
      <feGaussianBlur stdDeviation="14" />
    </filter>
    <filter id="mist" x="-20%" y="-20%" width="140%" height="140%">
      <feTurbulence baseFrequency="0.018 0.036" numOctaves="4" seed="23" type="fractalNoise" />
      <feDisplacementMap in="SourceGraphic" scale="16" />
      <feGaussianBlur stdDeviation="8" />
    </filter>
  </defs>
  <rect width="512" height="512" fill="#dffaff" />
  <ellipse cx="250" cy="72" rx="252" ry="150" fill="#fbfff1" opacity="0.76" filter="url(#blur24)" />
  <ellipse cx="118" cy="354" rx="180" ry="132" fill="#008dff" opacity="0.92" filter="url(#blur24)" />
  <ellipse cx="324" cy="384" rx="214" ry="126" fill="#1dc2ff" opacity="0.72" filter="url(#blur24)" />
  <ellipse cx="262" cy="470" rx="260" ry="94" fill="#0077ff" opacity="0.72" filter="url(#blur24)" />
  <path
    fill="#fcfff0"
    d="M-34 174c68-54 133-69 195-45 43 17 74 48 122 52 57 5 104-31 163-37 49-5 91 10 126 46v91c-58-27-112-30-161-9-45 19-82 50-134 50-48 0-85-29-131-45-55-20-115-10-180 29z"
    filter="url(#mist)"
    opacity="0.76"
  />
  <path
    fill="#ffffff"
    d="M20 222c48-42 96-54 143-35 36 14 62 40 101 44 48 4 88-24 139-27 43-3 80 11 111 42v60c-45-20-89-18-133 5-44 23-89 39-137 27-36-9-65-36-103-46-37-9-77-1-121 24z"
    filter="url(#blur14)"
    opacity="0.48"
  />
  <path
    fill="#baf3ff"
    d="M-10 292c61-28 115-32 163-12 50 21 88 53 146 51 62-2 106-41 164-32 35 5 65 22 91 52v74c-70-38-135-47-195-26-49 17-93 49-151 42-46-6-81-34-124-47-35-10-66-8-94 6z"
    filter="url(#mist)"
    opacity="0.42"
  />
  <ellipse cx="180" cy="132" rx="118" ry="72" fill="#ffffee" opacity="0.36" filter="url(#blur14)" />
  <ellipse cx="350" cy="176" rx="130" ry="88" fill="#efffff" opacity="0.4" filter="url(#blur14)" />
</svg>
